<svg width="21" height="20" viewBox="0 0 21 20" fill="none" xmlns="http://www.w3.org/2000/svg">
<path d="M8.04706 4.79675C7.89628 4.94753 7.80393 5.15705 7.80422 5.38716L7.80422 5.48844C7.80422 5.94924 8.17726 6.32227 8.63747 6.32168L13.1904 6.32168L5.48863 14.0234C5.16336 14.3487 5.16336 14.8767 5.48863 15.2019C5.8139 15.5272 6.34187 15.5272 6.66714 15.2019L14.3689 7.50019V12.0531C14.3689 12.5139 14.7419 12.8869 15.2021 12.8864H15.3034C15.7642 12.8864 16.1373 12.5133 16.1367 12.0531V5.38716C16.1367 4.92636 15.7636 4.55333 15.3034 4.55391L8.63747 4.55391C8.40707 4.55391 8.19783 4.64598 8.04706 4.79675Z" fill="#34C759"/>
</svg>
