<svg width="25" height="25" viewBox="0 0 25 25" fill="none" xmlns="http://www.w3.org/2000/svg">
<path d="M19.4667 8.41998V13.57C19.4667 16.65 17.7067 17.97 15.0667 17.97H6.27673C5.82673 17.97 5.39673 17.93 4.99673 17.84C4.74673 17.8 4.50674 17.73 4.28674 17.65C2.78674 17.09 1.87674 15.79 1.87674 13.57V8.41998C1.87674 5.33998 3.63673 4.02002 6.27673 4.02002H15.0667C17.3067 4.02002 18.9167 4.97001 19.3467 7.14001C19.4167 7.54001 19.4667 7.94998 19.4667 8.41998Z" stroke="#347AE2" stroke-width="1.5" stroke-miterlimit="10" stroke-linecap="round" stroke-linejoin="round"/>
<path d="M22.4678 11.4201V16.5701C22.4678 19.6501 20.7078 20.9701 18.0678 20.9701H9.27783C8.53783 20.9701 7.86784 20.8701 7.28784 20.6501C6.09784 20.2101 5.28783 19.3001 4.99783 17.8401C5.39783 17.9301 5.82783 17.9701 6.27783 17.9701H15.0678C17.7078 17.9701 19.4678 16.6501 19.4678 13.5701V8.4201C19.4678 7.9501 19.4278 7.53014 19.3478 7.14014C21.2478 7.54014 22.4678 8.88011 22.4678 11.4201Z" stroke="#347AE2" stroke-width="1.5" stroke-miterlimit="10" stroke-linecap="round" stroke-linejoin="round"/>
<path d="M10.6652 13.6399C12.1232 13.6399 13.3052 12.4579 13.3052 10.9999C13.3052 9.54185 12.1232 8.35986 10.6652 8.35986C9.20716 8.35986 8.02518 9.54185 8.02518 10.9999C8.02518 12.4579 9.20716 13.6399 10.6652 13.6399Z" stroke="#347AE2" stroke-width="1.5" stroke-miterlimit="10" stroke-linecap="round" stroke-linejoin="round"/>
<path d="M4.94675 8.80005V13.2001" stroke="#347AE2" stroke-width="1.5" stroke-miterlimit="10" stroke-linecap="round" stroke-linejoin="round"/>
<path d="M16.3885 8.80029V13.2003" stroke="#347AE2" stroke-width="1.5" stroke-miterlimit="10" stroke-linecap="round" stroke-linejoin="round"/>
</svg>
