<svg width="25" height="25" viewBox="0 0 25 25" fill="none" xmlns="http://www.w3.org/2000/svg">
<path d="M9.99337 11.37C9.89337 11.36 9.77337 11.36 9.66337 11.37C7.28337 11.29 5.39337 9.34 5.39337 6.94C5.39337 4.49 7.37337 2.5 9.83337 2.5C12.2834 2.5 14.2734 4.49 14.2734 6.94C14.2634 9.34 12.3734 11.29 9.99337 11.37Z" stroke="#347AE2" stroke-width="1.5" stroke-linecap="round" stroke-linejoin="round"/>
<path d="M17.2434 4.5C19.1834 4.5 20.7434 6.07 20.7434 8C20.7434 9.89 19.2434 11.43 17.3734 11.5C17.2934 11.49 17.2034 11.49 17.1134 11.5" stroke="#347AE2" stroke-width="1.5" stroke-linecap="round" stroke-linejoin="round"/>
<path d="M4.99334 15.06C2.57334 16.68 2.57334 19.32 4.99334 20.93C7.74334 22.77 12.2533 22.77 15.0033 20.93C17.4233 19.31 17.4233 16.67 15.0033 15.06C12.2633 13.23 7.75334 13.23 4.99334 15.06Z" stroke="#347AE2" stroke-width="1.5" stroke-linecap="round" stroke-linejoin="round"/>
<path d="M19.1734 20.5C19.8934 20.35 20.5734 20.06 21.1334 19.63C22.6934 18.46 22.6934 16.53 21.1334 15.36C20.5834 14.94 19.9134 14.66 19.2034 14.5" stroke="#347AE2" stroke-width="1.5" stroke-linecap="round" stroke-linejoin="round"/>
</svg>
