<svg width="4" height="14" viewBox="0 0 4 14" fill="none" xmlns="http://www.w3.org/2000/svg">
<path d="M2.00016 13.6667C1.54183 13.6667 1.14961 13.5037 0.823496 13.1775C0.49683 12.8509 0.333496 12.4584 0.333496 12C0.333496 11.5417 0.49683 11.1492 0.823496 10.8225C1.14961 10.4964 1.54183 10.3334 2.00016 10.3334C2.4585 10.3334 2.851 10.4964 3.17766 10.8225C3.50377 11.1492 3.66683 11.5417 3.66683 12C3.66683 12.4584 3.50377 12.8509 3.17766 13.1775C2.851 13.5037 2.4585 13.6667 2.00016 13.6667ZM2.00016 8.66671C1.54183 8.66671 1.14961 8.50337 0.823496 8.17671C0.49683 7.8506 0.333496 7.45837 0.333496 7.00004C0.333496 6.54171 0.49683 6.14921 0.823496 5.82254C1.14961 5.49643 1.54183 5.33337 2.00016 5.33337C2.4585 5.33337 2.851 5.49643 3.17766 5.82254C3.50377 6.14921 3.66683 6.54171 3.66683 7.00004C3.66683 7.45837 3.50377 7.8506 3.17766 8.17671C2.851 8.50337 2.4585 8.66671 2.00016 8.66671ZM2.00016 3.66671C1.54183 3.66671 1.14961 3.50337 0.823496 3.17671C0.49683 2.8506 0.333496 2.45837 0.333496 2.00004C0.333496 1.54171 0.49683 1.14948 0.823496 0.823374C1.14961 0.496707 1.54183 0.333374 2.00016 0.333374C2.4585 0.333374 2.851 0.496707 3.17766 0.823374C3.50377 1.14948 3.66683 1.54171 3.66683 2.00004C3.66683 2.45837 3.50377 2.8506 3.17766 3.17671C2.851 3.50337 2.4585 3.66671 2.00016 3.66671Z" fill="#1D2433" fill-opacity="0.8"/>
</svg>
